<svg xmlns="http://www.w3.org/2000/svg" width="190.115" height="55.443" viewBox="0 0 190.115 55.443">
  <g id="Group_12" data-name="Group 12" transform="translate(0 0)">
    <g id="Group_11" data-name="Group 11" transform="translate(0 0)">
      <g id="Group_9" data-name="Group 9" transform="translate(0 0)">
        <g id="Group_8" data-name="Group 8" transform="translate(0 3.547)">
          <g id="Group_6" data-name="Group 6">
            <path id="Path_9" data-name="Path 9" d="M741.258-372.979a25.448,25.448,0,0,0-9.591,2.49,17.293,17.293,0,0,0-1.667.927,7.837,7.837,0,0,0,1.035.463,24.222,24.222,0,0,0,8.037,1.728c.381.009.849.026,1.039.039.472.022,2.066-.052,2.858-.134a24.447,24.447,0,0,0,9.778-3.057,4,4,0,0,0,.4-.255,12.363,12.363,0,0,0-2.343-.979A25.6,25.6,0,0,0,741.258-372.979Z" transform="translate(-701.082 410.094)" fill="#48bb78"/>
            <path id="Path_1" data-name="Path 1" d="M541.146-1221.294a34.32,34.32,0,0,1,2.174,5.278,41.292,41.292,0,0,1-1.057,27.969c-.338.81-1.442,3.113-1.494,3.113s-1.156-2.3-1.494-3.113a41.094,41.094,0,0,1-2.68-20.573,38.826,38.826,0,0,1,3.2-11.453c.32-.693.948-1.927.974-1.927A7.81,7.81,0,0,1,541.146-1221.294Z" transform="translate(-514.891 1222)" fill="#48bb78"/>
            <path id="Path_3" data-name="Path 3" d="M703.281-882.889l.862.277a36.163,36.163,0,0,1,17.394,12.843,33.413,33.413,0,0,1,4.828,9.18c.1.307.191.571.191.593a5.263,5.263,0,0,1-1.342-.4,33.8,33.8,0,0,1-9.4-4.958A35.839,35.839,0,0,1,703.212-882.3c-.117-.342-.212-.632-.212-.636C703-882.967,703.112-882.945,703.281-882.889Z" transform="translate(-703 897.633)" fill="#48bb78"/>
            <path id="Path_8" data-name="Path 8" d="M726.274-882.889l-.862.277a36.163,36.163,0,0,0-17.394,12.843,33.421,33.421,0,0,0-4.828,9.18c-.1.307-.19.571-.19.593a5.261,5.261,0,0,0,1.342-.4,33.8,33.8,0,0,0,9.4-4.958A35.837,35.837,0,0,0,726.344-882.3c.117-.342.212-.632.212-.636C726.556-882.967,726.443-882.945,726.274-882.889Z" transform="translate(-674.488 897.633)" fill="#48bb78"/>
            <path id="Path_5" data-name="Path 5" d="M741.892-372.979a25.449,25.449,0,0,1,9.591,2.49,17.285,17.285,0,0,1,1.667.927,7.837,7.837,0,0,1-1.035.463,24.221,24.221,0,0,1-8.037,1.728c-.381.009-.849.026-1.039.039-.472.022-2.066-.052-2.858-.134a24.447,24.447,0,0,1-9.777-3.057,4,4,0,0,1-.4-.255,12.363,12.363,0,0,1,2.343-.979A25.6,25.6,0,0,1,741.892-372.979Z" transform="translate(-730 410.094)" fill="#48bb78"/>
            <path id="Path_7" data-name="Path 7" d="M726.87-225.623a16.115,16.115,0,0,1-3.724,3.711,16.507,16.507,0,0,1-7.747,2.966,5.873,5.873,0,0,1-1.3.052,10.3,10.3,0,0,1,.771-1.087,16.553,16.553,0,0,1,11.094-5.971c.273-.026.65-.048.831-.048h.333Z" transform="translate(-702.728 269.129)" fill="#48bb78"/>
            <path id="Path_10" data-name="Path 10" d="M.26.377A16.118,16.118,0,0,0,3.984,4.088a16.507,16.507,0,0,0,7.747,2.966,5.873,5.873,0,0,0,1.3.052,10.294,10.294,0,0,0-.771-1.087A16.552,16.552,0,0,0,1.165.048C.892.022.515,0,.333,0H0Z" transform="matrix(0.985, -0.174, 0.174, 0.985, 27.147, 44.314)" fill="#48bb78"/>
          </g>
        </g>
        <g id="Group_7" data-name="Group 7" transform="translate(64.115)">
          <text id="spotleaf" transform="translate(0 33)" fill="#edf2f7" font-size="35" font-family="SF Pro" font-weight="500"><tspan x="0" y="0">spotleaf</tspan></text>
          <text id="stoner_queues" data-name="stoner queues" transform="translate(0.653 52.443)" fill="#edf2f7" font-size="12" font-family="SF Pro"><tspan x="0" y="0">stoner queues</tspan></text>
        </g>
      </g>
    </g>
  </g>
</svg>
